# Blender 5.1.2
# www.blender.org
mtllib something.mtl
o Cube
v 0.540803 3.437633 -0.772029
v 0.543101 3.335671 -1.227612
v 0.279149 3.582050 -1.213076
v 0.279149 3.663102 -0.772029
v 0.460499 -1.000000 -0.772029
v 0.460499 -0.772029 -1.000000
v 0.688470 -0.772029 -0.772029
v 0.279149 3.582050 1.213076
v 0.543101 3.335671 1.227612
v 0.540803 3.437633 0.772029
v 0.279149 3.663102 0.772029
v 0.688470 -0.772029 0.772029
v 0.460499 -0.772029 1.000000
v 0.460499 -1.000000 0.772029
v -0.540803 3.437633 -0.772029
v -0.279149 3.663102 -0.772029
v -0.279149 3.582050 -1.213076
v -0.543101 3.335671 -1.227612
v -0.688470 -0.772029 -0.772029
v -0.460499 -0.772029 -1.000000
v -0.460499 -1.000000 -0.772029
v -0.543101 3.335671 1.227612
v -0.279149 3.582050 1.213076
v -0.279149 3.663102 0.772029
v -0.540803 3.437633 0.772029
v -0.688470 -0.772029 0.772029
v -0.460499 -1.000000 0.772029
v -0.460499 -0.772029 1.000000
v 0.688470 2.221204 -0.772029
v 0.460499 2.221204 -1.000000
v 0.460499 2.368123 -1.213076
v 0.652489 2.603444 -1.227612
v 0.654787 2.674644 -0.772029
v -0.652489 2.603445 1.227612
v -0.654787 2.674644 0.772029
v -0.688470 2.221204 0.772029
v -0.460499 2.221204 1.000000
v -0.460499 2.368124 1.213076
v 0.460499 2.221204 1.000000
v 0.688470 2.221204 0.772029
v 0.654787 2.674644 0.772029
v 0.652489 2.603444 1.227612
v 0.460499 2.368123 1.213076
v -0.688470 2.221204 -0.772029
v -0.654787 2.674644 -0.772029
v -0.652489 2.603444 -1.227612
v -0.460499 2.368123 -1.213076
v -0.460499 2.221204 -1.000000
v -0.279149 2.983378 -2.786924
v -0.310676 2.674356 -3.000000
v -0.543101 2.748057 -2.772388
v 0.279149 2.983378 -2.786924
v 0.543101 2.748057 -2.772388
v 0.310676 2.674356 -3.000000
v 0.652489 2.015831 -2.772388
v 0.460499 1.769451 -2.786924
v 0.423912 1.916371 -3.000000
v -0.652489 2.015831 -2.772388
v -0.423912 1.916371 -3.000000
v -0.460499 1.769451 -2.786924
v -0.652489 2.015831 2.772388
v -0.460499 1.769451 2.786924
v -0.423912 1.916371 3.000000
v -0.543101 2.748057 2.772388
v -0.310676 2.674356 3.000000
v -0.279149 2.983378 2.786924
v 0.279149 2.983378 2.786924
v 0.310676 2.674356 3.000000
v 0.543101 2.748057 2.772388
v 0.652489 2.015831 2.772388
v 0.423912 1.916371 3.000000
v 0.460499 1.769451 2.786924
vn 0.6583 0.7379 -0.1489
vn 0.5774 -0.5774 -0.5774
vn 0.6583 0.7379 0.1489
vn 0.5774 -0.5774 0.5774
vn -0.6583 0.7379 -0.1489
vn -0.5774 -0.5774 -0.5774
vn -0.6583 0.7379 0.1489
vn -0.5774 -0.5774 0.5774
vn 0.8956 -0.3177 -0.3113
vn -0.8956 -0.3177 0.3113
vn 0.8956 -0.3177 0.3113
vn -0.8956 -0.3177 -0.3113
vn -0.5051 0.5242 -0.6856
vn 0.5051 0.5242 -0.6856
vn 0.7053 -0.5212 -0.4805
vn -0.7053 -0.5212 -0.4805
vn -0.7053 -0.5212 0.4805
vn -0.5051 0.5242 0.6856
vn 0.5051 0.5242 0.6856
vn 0.7053 -0.5212 0.4805
vn -0.7071 -0.7071 -0.0000
vn -0.0000 -0.7071 -0.7071
vn 0.7071 -0.0000 -0.7071
vn -0.9886 0.1477 0.0281
vn 0.7071 -0.0000 0.7071
vn -0.7071 -0.0000 -0.7071
vn -0.0000 0.9835 0.1807
vn 0.6528 0.7575 -0.0000
vn -0.0000 -0.7071 0.7071
vn -0.6528 0.7575 -0.0000
vn -0.0000 0.9835 -0.1807
vn 0.7071 -0.7071 -0.0000
vn 0.9886 0.1477 -0.0281
vn -0.7071 -0.0000 0.7071
vn 0.9886 0.1477 0.0281
vn -0.9886 0.1477 -0.0281
vn -0.0000 -0.8233 -0.5677
vn 0.9973 0.0741 -0.0000
vn -0.9973 0.0741 -0.0000
vn -0.0000 -0.8233 0.5677
vn -0.0000 0.5677 -0.8233
vn 0.6794 0.1015 -0.7267
vn -0.6794 0.1015 -0.7267
vn -0.6489 0.7112 -0.2705
vn -0.7609 -0.6065 0.2307
vn 0.7609 -0.6065 0.2307
vn 0.6489 0.7112 -0.2705
vn -0.6794 0.1015 0.7267
vn -0.0000 0.5677 0.8233
vn 0.6794 0.1015 0.7267
vn -0.6489 0.7112 0.2705
vn 0.6489 0.7112 0.2705
vn -0.7609 -0.6065 -0.2307
vn 0.7609 -0.6065 -0.2307
vn 0.9890 0.1478 -0.0000
vn -0.0000 1.0000 -0.0000
vn 0.9875 0.1475 -0.0561
vn -0.0000 0.9347 -0.3555
vn -0.0000 -0.0000 -1.0000
vn 1.0000 -0.0000 -0.0000
vn -0.0000 -1.0000 -0.0000
vn -0.0000 0.9347 0.3555
vn 0.9875 0.1475 0.0561
vn -0.0000 -0.0000 1.0000
vn -0.9890 0.1478 -0.0000
vn -0.9875 0.1475 -0.0561
vn -1.0000 -0.0000 -0.0000
vn -0.9875 0.1475 0.0561
vn -0.0000 -0.9347 0.3555
vn -0.0000 -0.9347 -0.3555
vt 0.612912 0.528496
vt 0.612087 0.500000
vt 0.681193 0.500000
vt 0.681193 0.528496
vt 0.333609 0.528496
vt 0.360416 0.479305
vt 0.384167 0.528496
vt 0.681192 0.750000
vt 0.612087 0.750000
vt 0.612912 0.721504
vt 0.681193 0.721504
vt 0.384167 0.721504
vt 0.360416 0.770695
vt 0.333609 0.721504
vt 0.612912 0.228628
vt 0.625000 0.235752
vt 0.625000 0.250000
vt 0.612087 0.250000
vt 0.125000 0.528496
vt 0.166391 0.500000
vt 0.166391 0.528496
vt 0.612087 0.000000
vt 0.625000 0.000000
vt 0.625000 0.014248
vt 0.612912 0.021372
vt 0.125000 0.721504
vt 0.166391 0.721504
vt 0.166391 0.750000
vt 0.547696 0.528496
vt 0.547696 0.458609
vt 0.559918 0.458609
vt 0.572831 0.500000
vt 0.572006 0.528496
vt 0.568527 0.000000
vt 0.568985 0.028496
vt 0.547696 0.028496
vt 0.547696 0.000000
vt 0.555573 0.000000
vt 0.547696 0.791391
vt 0.547696 0.721504
vt 0.572006 0.721504
vt 0.572831 0.750000
vt 0.559919 0.791391
vt 0.547696 0.221504
vt 0.572006 0.221504
vt 0.572831 0.250000
vt 0.559918 0.291391
vt 0.547696 0.291391
vt 0.625000 0.287462
vt 0.612778 0.302031
vt 0.613223 0.250000
vt 0.653096 0.471904
vt 0.613223 0.500000
vt 0.612778 0.447969
vt 0.572831 0.500000
vt 0.559919 0.458609
vt 0.572141 0.455264
vt 0.572141 0.294736
vt 0.559919 0.291391
vt 0.565736 0.997822
vt 0.559919 0.958609
vt 0.569085 0.954439
vt 0.616628 1.000000
vt 0.612778 0.947969
vt 0.625000 0.943807
vt 0.653096 0.778096
vt 0.612778 0.802031
vt 0.613223 0.750000
vt 0.572141 0.794736
vt 0.387222 0.291391
vt 0.387222 0.221504
vt 0.818807 0.721504
vt 0.818807 0.750000
vt 0.818807 0.528496
vt 0.818807 0.500000
vt 0.387222 0.000000
vt 0.387222 0.028496
vt 0.559919 0.958609
vt 0.547696 0.958609
vt 0.559919 1.000000
vt 0.818807 0.500000
vt 0.387222 0.958609
vt 0.572831 0.000000
s 0
usemtl Material
f 1/1/1 2/2/1 3/3/1 4/4/1
f 5/5/2 6/6/2 7/7/2
f 8/8/3 9/9/3 10/10/3 11/11/3
f 12/12/4 13/13/4 14/14/4
f 15/15/5 16/16/5 17/17/5 18/18/5
f 19/19/6 20/20/6 21/21/6
f 22/22/7 23/23/7 24/24/7 25/25/7
f 26/26/8 27/27/8 28/28/8
f 29/29/9 30/30/9 31/31/9 32/32/9 33/33/9
f 34/34/10 35/35/10 36/36/10 37/37/10 38/38/10
f 39/39/11 40/40/11 41/41/11 42/42/11 43/43/11
f 44/44/12 45/45/12 46/46/12 47/47/12 48/48/12
f 49/49/13 50/50/13 51/51/13
f 52/52/14 53/53/14 54/54/14
f 55/55/15 56/56/15 57/57/15
f 58/46/16 59/58/16 60/59/16
f 61/60/17 62/61/17 63/62/17
f 64/63/18 65/64/18 66/65/18
f 67/66/19 68/67/19 69/68/19
f 70/42/20 71/69/20 72/43/20
f 21/21/21 27/27/21 26/26/21 19/19/21
f 5/5/22 21/21/22 20/20/22 6/6/22
f 29/29/23 7/7/23 6/6/23 30/30/23
f 34/34/24 22/22/24 25/25/24 35/35/24
f 39/39/25 13/13/25 12/12/25 40/40/25
f 48/48/26 20/70/26 19/71/26 44/44/26
f 11/11/27 24/72/27 23/73/27 8/8/27
f 4/4/28 11/11/28 10/10/28 1/1/28
f 27/27/29 14/14/29 13/13/29 28/28/29
f 24/24/30 16/16/30 15/15/30 25/25/30
f 16/74/31 4/4/31 3/3/31 17/75/31
f 14/14/32 5/5/32 7/7/32 12/12/32
f 1/1/33 33/33/33 32/32/33 2/2/33
f 28/76/34 37/37/34 36/36/34 26/77/34
f 9/9/35 42/42/35 41/41/35 10/10/35
f 18/18/36 46/46/36 45/45/36 15/15/36
f 47/47/37 31/31/37 30/30/37 48/48/37
f 33/33/38 41/41/38 40/40/38 29/29/38
f 35/35/39 45/45/39 44/44/39 36/36/39
f 43/43/40 38/78/40 37/79/40 39/39/40
f 49/49/41 52/52/41 54/54/41 50/50/41
f 53/53/42 55/55/42 57/57/42 54/54/42
f 50/50/43 59/58/43 58/46/43 51/51/43
f 59/58/37 57/57/37 56/56/37 60/59/37
f 17/17/44 49/49/44 51/51/44 18/18/44
f 60/59/45 47/47/45 46/46/45 58/46/45
f 55/55/46 32/32/46 31/31/46 56/56/46
f 52/52/47 3/3/47 2/2/47 53/53/47
f 63/62/48 65/64/48 64/63/48 61/60/48
f 67/66/49 66/65/49 65/64/49 68/67/49
f 68/67/50 71/69/50 70/42/50 69/68/50
f 71/69/40 63/62/40 62/61/40 72/43/40
f 22/22/51 64/22/51 66/23/51 23/23/51
f 69/68/52 9/9/52 8/8/52 67/66/52
f 38/78/53 62/61/53 61/60/53 34/80/53
f 72/43/54 43/43/54 42/42/54 70/42/54
f 33/33/55 1/1/55 10/10/55 41/41/55
f 4/4/56 16/74/56 24/72/56 11/11/56
f 2/2/57 32/32/57 55/55/57 53/53/57
f 17/75/58 3/3/58 52/52/58 49/81/58
f 20/70/59 48/48/59 30/30/59 6/6/59
f 7/7/60 29/29/60 40/40/60 12/12/60
f 21/21/61 5/5/61 14/14/61 27/27/61
f 8/8/62 23/73/62 66/73/62 67/66/62
f 42/42/63 9/9/63 69/68/63 70/42/63
f 13/13/64 39/39/64 37/79/64 28/82/64
f 35/35/65 25/25/65 15/15/65 45/45/65
f 46/46/66 18/18/66 51/51/66 58/46/66
f 26/77/67 36/36/67 44/44/67 19/71/67
f 22/22/68 34/34/68 61/83/68 64/22/68
f 31/31/69 47/47/69 60/59/69 56/56/69
f 38/78/70 43/43/70 72/43/70 62/61/70
f 59/58/59 50/50/59 54/54/59 57/57/59
f 71/69/64 68/67/64 65/64/64 63/62/64
